<svg width="150" height="150" viewBox="0 0 150 150" fill="none" xmlns="http://www.w3.org/2000/svg">
<g clip-path="url(#clip0_75_1668)">
<path d="M145.875 59.25L124 21.75C118.419 12.1875 108.081 6.25 97.0064 6.25H52.8064C41.7377 6.25 31.3939 12.1875 25.8127 21.75L3.94395 59.25C-1.7248 68.9625 -1.7248 81.0313 3.94395 90.7438L25.8189 128.244C31.4002 137.806 41.7377 143.744 52.8127 143.744H97.0127C108.081 143.744 118.425 137.806 124.006 128.244L145.881 90.7438C151.55 81.0313 151.544 68.9625 145.875 59.25ZM68.7502 43.75C68.7502 40.2938 71.5502 37.5 75.0002 37.5C78.4502 37.5 81.2502 40.2938 81.2502 43.75V78.125C81.2502 81.5813 78.4502 84.375 75.0002 84.375C71.5502 84.375 68.7502 81.5813 68.7502 78.125V43.75ZM75.0002 112.5C69.8252 112.5 65.6252 108.3 65.6252 103.125C65.6252 97.95 69.8252 93.75 75.0002 93.75C80.1752 93.75 84.3752 97.95 84.3752 103.125C84.3752 108.3 80.1752 112.5 75.0002 112.5Z" fill="#FF0000"/>
</g>
<defs>
<clipPath id="clip0_75_1668">
<rect width="150" height="150" fill="white"/>
</clipPath>
</defs>
</svg>
