<svg width="150" height="150" viewBox="0 0 150 150" fill="none" xmlns="http://www.w3.org/2000/svg">
<g clip-path="url(#clip0_75_1602)">
<path d="M63.0938 112.762L67.0188 130.419C69.5625 141.856 79.7063 149.994 91.425 149.994H118.756V112.494C118.756 109.044 121.556 106.244 125.006 106.244C128.456 106.244 131.256 109.044 131.256 112.494V149.994C141.613 149.994 150.006 141.6 150.006 131.244V112.494C150.006 102.137 141.613 93.7437 131.256 93.7437H128.406L114.7 67.8125C113.575 65.6125 112.025 63.975 110.438 63.3187C109.113 62.7687 107.769 62.4937 106.438 62.4937C102.175 62.4937 98.6625 65.2812 97.4875 69.5937C97.35 70.0937 97.175 71.25 97.5313 73.3375L101.156 93.7437H78.35C68.3563 93.7437 60.9313 103 63.1 112.756L63.0938 112.762ZM59.375 0C26.5813 0 0 26.5812 0 59.375C0 89.4875 22.4375 114.3 51.4875 118.169L50.8875 115.475C49.025 107.106 51.0375 98.4625 56.4063 91.775C61.7688 85.0937 69.7688 81.25 78.3438 81.25H86.2375L85.225 75.525C84.6125 72.0187 84.7 68.9062 85.45 66.2188C88.075 56.5562 96.5188 49.9937 106.425 49.9937C109.413 49.9937 112.369 50.5938 115.219 51.775C116.338 52.2375 117.419 52.8375 118.45 53.5437C115.525 23.4937 90.2 0 59.375 0ZM86.875 45.1187L63.6188 67.4062C57.525 73.3812 47.7625 73.3625 41.6938 67.3625L29.9875 56.25C27.5313 53.825 27.5063 49.875 29.9188 47.4062C32.3438 44.9375 36.3063 44.8937 38.7813 47.3187L52.5938 60.425L78.1313 36.1437C80.6188 33.7375 84.5813 33.7937 86.9938 36.2812C89.3938 38.7562 89.3438 42.7062 86.8813 45.1187H86.875Z" fill="#FF0000"/>
</g>
<defs>
<clipPath id="clip0_75_1602">
<rect width="150" height="150" fill="white"/>
</clipPath>
</defs>
</svg>
